<?xml version="1.0" encoding="UTF-8"?>
<svg id="Layer_1" data-name="Layer 1" xmlns="http://www.w3.org/2000/svg" viewBox="0 0 304.28 116.36">
  <defs>
    <style>
      .cls-1, .cls-2 {
        fill: #231f20;
      }

      .cls-3, .cls-4 {
        fill: #ed1c24;
      }

      .cls-2 {
        stroke: #231f20;
      }

      .cls-2, .cls-4 {
        stroke-miterlimit: 10;
      }

      .cls-4 {
        stroke: #ed1c24;
      }
    </style>
  </defs>
  <g>
    <rect class="cls-4" x=".5" y=".5" width="32" height="32"/>
    <rect class="cls-4" x="33.53" y="33.65" width="32" height="32"/>
    <rect class="cls-4" x="66.58" y="1.02" width="32" height="32"/>
    <rect class="cls-4" x="99.61" y="34.16" width="32" height="32"/>
  </g>
  <g>
    <rect class="cls-2" x="132.6" y="1.33" width="32" height="32"/>
    <rect class="cls-2" x="165.64" y="34.48" width="32" height="32"/>
    <rect class="cls-2" x="198.68" y="1.85" width="32" height="32"/>
    <rect class="cls-2" x="231.71" y="35" width="32" height="32"/>
  </g>
  <rect class="cls-2" x="264.71" y="2.12" width="32" height="32"/>
  <path class="cls-1" d="M4.44,81.42h10.64v34.36H4.44v-34.36Z"/>
  <path class="cls-1" d="M26.22,81.42h9.91l12.94,19.01v-19.01h10.01v34.36h-10.01l-12.87-18.87v18.87h-9.98v-34.36Z"/>
  <path class="cls-1" d="M69.73,81.42h15.77c3.11,0,5.62.42,7.54,1.27s3.5,2.05,4.75,3.63,2.16,3.41,2.72,5.51.84,4.31.84,6.66c0,3.67-.42,6.52-1.25,8.54s-2,3.72-3.48,5.09-3.08,2.28-4.78,2.73c-2.33.62-4.44.94-6.33.94h-15.77v-34.36ZM80.35,89.2v18.77h2.6c2.22,0,3.8-.25,4.73-.74s1.67-1.35,2.2-2.58.8-3.21.8-5.96c0-3.64-.59-6.13-1.78-7.48s-3.16-2.02-5.91-2.02h-2.65Z"/>
  <path class="cls-1" d="M109.05,98.62c0-5.61,1.56-9.98,4.69-13.1s7.48-4.69,13.05-4.69,10.12,1.54,13.22,4.61,4.64,7.37,4.64,12.9c0,4.02-.68,7.31-2.03,9.88s-3.3,4.57-5.86,6-5.74,2.14-9.55,2.14-7.08-.62-9.62-1.85-4.6-3.19-6.18-5.86-2.37-6.02-2.37-10.03ZM119.66,98.67c0,3.47.64,5.96,1.93,7.48s3.04,2.27,5.26,2.27,4.05-.74,5.3-2.23,1.88-4.15,1.88-7.99c0-3.23-.65-5.6-1.96-7.09s-3.07-2.24-5.31-2.24-3.86.76-5.16,2.27-1.95,4.02-1.95,7.52Z"/>
  <path class="cls-3" d="M153.96,115.78v-34.36h17.7c3.28,0,5.79.28,7.52.84s3.13,1.61,4.2,3.13,1.59,3.38,1.59,5.57c0,1.91-.41,3.55-1.22,4.93-.81,1.38-1.93,2.5-3.35,3.36-.91.55-2.15,1-3.73,1.36,1.26.42,2.19.84,2.76,1.27.39.28.96.88,1.7,1.81s1.24,1.63,1.49,2.13l5.14,9.96h-12l-5.68-10.5c-.72-1.36-1.36-2.24-1.92-2.65-.77-.53-1.63-.8-2.6-.8h-.94v13.95h-10.66ZM164.63,95.34h4.48c.48,0,1.42-.16,2.81-.47.7-.14,1.28-.5,1.72-1.08s.67-1.24.67-1.99c0-1.11-.35-1.96-1.05-2.55s-2.02-.89-3.96-.89h-4.66v6.98Z"/>
  <path class="cls-3" d="M215.74,110.1h-12.05l-1.67,5.67h-10.84l12.91-34.36h11.58l12.91,34.36h-11.12l-1.72-5.67ZM213.54,102.67l-3.79-12.35-3.75,12.35h7.55Z"/>
  <path class="cls-3" d="M257.42,101.71l9.3,2.81c-.62,2.61-1.61,4.79-2.95,6.54s-3.01,3.07-5,3.96-4.53,1.34-7.61,1.34c-3.73,0-6.79-.54-9.15-1.63s-4.41-2.99-6.13-5.73c-1.72-2.73-2.58-6.23-2.58-10.49,0-5.68,1.51-10.05,4.54-13.1s7.3-4.58,12.83-4.58c4.33,0,7.73.88,10.21,2.62s4.32,4.44,5.52,8.06l-9.38,2.09c-.33-1.05-.67-1.81-1.03-2.3-.59-.81-1.32-1.44-2.18-1.88s-1.82-.66-2.88-.66c-2.41,0-4.25.97-5.53,2.9-.97,1.44-1.45,3.69-1.45,6.76,0,3.81.58,6.42,1.73,7.83s2.78,2.12,4.88,2.12,3.57-.57,4.61-1.71,1.79-2.8,2.26-4.97Z"/>
  <path class="cls-3" d="M275.31,81.42h28.45v7.34h-17.81v5.46h16.52v7.01h-16.52v6.77h18.33v7.78h-28.97v-34.36Z"/>
</svg>